<svg width="32" height="32" viewBox="0 0 32 32" fill="none" xmlns="http://www.w3.org/2000/svg">
<path d="M28.125 0.5C29.9531 0.5 31.5 2.04688 31.5 3.875V28.625C31.5 30.5234 29.9531 32 28.125 32H18.4219V21.3125H22.5L23.2734 16.25H18.4219V13.0156C18.4219 11.6094 19.125 10.2734 21.3047 10.2734H23.4844V5.98438C23.4844 5.98438 21.5156 5.63281 19.5469 5.63281C15.6094 5.63281 13.0078 8.09375 13.0078 12.4531V16.25H8.57812V21.3125H13.0078V32H3.375C1.47656 32 0 30.5234 0 28.625V3.875C0 2.04688 1.47656 0.5 3.375 0.5H28.125Z" fill="white"/>
</svg>