<svg width="32" height="32" viewBox="0 0 32 32" fill="none" xmlns="http://www.w3.org/2000/svg">
<path d="M16.25 12.5234C18.2891 12.5234 19.9766 14.2109 19.9766 16.25C19.9766 18.3594 18.2891 20.0469 16.25 20.0469C14.1406 20.0469 12.4531 18.3594 12.4531 16.25C12.4531 14.2109 14.1406 12.5234 16.25 12.5234ZM24.9688 9.64062C25.6016 11.1172 25.4609 14.6328 25.4609 16.25C25.4609 17.9375 25.6016 21.4531 24.9688 22.9297C24.6172 23.9141 23.8438 24.6875 22.8594 25.0391C21.3828 25.6719 17.8672 25.5312 16.25 25.5312C14.5625 25.5312 11.0469 25.6719 9.57031 25.0391C8.58594 24.6875 7.8125 23.9141 7.46094 22.9297C6.89844 21.4531 6.96875 17.9375 6.96875 16.25C6.96875 14.6328 6.89844 11.1172 7.46094 9.64062C7.8125 8.65625 8.58594 7.88281 9.57031 7.53125C11.0469 6.89844 14.5625 7.03906 16.25 7.03906C17.8672 7.03906 21.3828 6.89844 22.8594 7.53125C23.8438 7.88281 24.6172 8.65625 24.9688 9.64062ZM16.25 22.0156V22.0859C19.4141 22.0859 22.0156 19.4844 22.0156 16.3203V16.25C22.0156 13.0859 19.4141 10.4844 16.25 10.4844C13.0156 10.4844 10.4844 13.0859 10.4844 16.25C10.4844 19.4844 13.0156 22.0156 16.25 22.0156ZM22.2266 11.6094C22.9297 11.6094 23.5625 11.0469 23.5625 10.2734C23.5625 9.5 22.9297 8.9375 22.2266 8.9375C21.4531 8.9375 20.8906 9.5 20.8906 10.2734C20.8906 11.0469 21.4531 11.6094 22.2266 11.6094ZM28.625 0.5C30.4531 0.5 32 2.04688 32 3.875V28.625C32 30.5234 30.4531 32 28.625 32H3.875C1.97656 32 0.5 30.5234 0.5 28.625V3.875C0.5 2.04688 1.97656 0.5 3.875 0.5H28.625ZM27.3594 20.8906C27.5 19.0625 27.5 13.5078 27.3594 11.6797C27.2891 9.85156 26.8672 8.23438 25.6016 6.96875C24.2656 5.63281 22.6484 5.21094 20.8906 5.14062C18.9922 5 13.4375 5 11.6094 5.14062C9.78125 5.21094 8.16406 5.63281 6.89844 6.89844C5.5625 8.23438 5.14062 9.85156 5.07031 11.6094C4.92969 13.5078 4.92969 19.0625 5.07031 20.8906C5.14062 22.7188 5.5625 24.3359 6.89844 25.6016C8.16406 26.9375 9.78125 27.3594 11.6094 27.4297C13.4375 27.5703 18.9922 27.5703 20.8906 27.4297C22.6484 27.3594 24.2656 26.9375 25.6016 25.6016C26.8672 24.3359 27.2891 22.7188 27.3594 20.8906Z" fill="white"/>
</svg>